<?xml version="1.0" encoding="iso-8859-1"?>
<!-- Generator: Adobe Illustrator 16.0.0, SVG Export Plug-In . SVG Version: 6.00 Build 0)  -->
<!DOCTYPE svg PUBLIC "-//W3C//DTD SVG 1.1//EN" "http://www.w3.org/Graphics/SVG/1.1/DTD/svg11.dtd">
<svg version="1.1" id="Capa_1" xmlns="http://www.w3.org/2000/svg" xmlns:xlink="http://www.w3.org/1999/xlink" x="0px" y="0px"
	 width="800px" height="800px" viewBox="0 0 800 800" style="enable-background:new 0 0 800 800;" xml:space="preserve">
<g>
	<path d="M298.456,84.787c0-46.832,38-84.787,84.878-84.787c46.876,0,84.854,37.956,84.854,84.787
		c0,46.853-37.979,84.766-84.854,84.766C336.456,169.553,298.456,131.64,298.456,84.787z M761.986,577.258l-31.305-83.312
		c-8.963-23.873-35.491-35.938-59.125-26.91l-32.21,12.261c-2.333-13.975-12.055-25.129-24.844-29.23
		c5.357-12.521-4.536-26.845-10.218-37.326c-7.194-13.281-14.842-26.279-22.532-39.258c-5.119-8.616-10.195-17.209-15.078-25.825
		c-5.703-10.004-11.212-20.877-16.893-31.988c-18.104-35.547-38.669-75.846-70.426-102.778c-3.823-3.211-7.819-6.163-11.945-8.939
		c-13.588-13.238-42.083-23.59-73.602-25.717l21.906,229.731l-31.604,37.023l-36.142-37.023l27.457-229.948
		c-19.594,0.695-36.983,4.297-50.96,9.875c-25.902,6.445-48.304,20.486-68.697,33.312c-25.924,16.319-48.325,30.164-73.061,28.298
		c-13.329-1.15-26.571-10.438-42.384-24.066c-19.054-16.319-37.071-31.88-55.433-48.611c-12.119-11.024-31-10.178-42.125,1.975
		c-11.082,12.174-10.196,31.011,1.966,42.079c18.816,17.101,37.243,33.051,56.707,49.74c21.236,18.272,45.172,35.546,76.171,38.216
		c3.457,0.303,6.892,0.455,10.262,0.455c39.792,0,71.461-19.942,99.696-37.694c8.382-5.275,16.289-10.026,24.022-14.302
		c-1.146,22.157-4.58,89.974-7.518,159.245c-0.064,0.562-0.259,1.105-0.302,1.691l-23.936,338.044
		c-1.491,21.267,14.517,39.733,35.839,41.231c0.929,0.065,1.837,0.087,2.744,0.087c20.112,0,37.071-15.516,38.539-35.894
		l18.838-266.082c3.024-0.868,6.005-1.582,8.577-1.582c3.023,0,5.939,0.52,8.898,0.888l17.413,268.968
		C412,784.31,429,800,449.201,800c0.842,0,1.686-0.043,2.549-0.086c21.278-1.39,37.437-19.749,36.055-41.038L467.11,439.453
		c-0.087-1.281-0.411-2.452-0.604-3.689c-1.686-48.697-7.346-121.789-10.586-161.654c15.424,19.075,28.257,44.119,40.722,68.599
		c6.113,11.936,12.056,23.589,18.168,34.353c5.076,8.918,10.349,17.839,15.641,26.778c10.023,16.884,20.372,34.354,28.753,51.324
		c2.896,5.839,7.54,10.136,12.919,12.956c-3.305,5.989-5.336,12.718-4.709,20.118c0.518,6.031,2.809,11.436,5.833,16.252
		l-26.356,9.982c-23.61,9.052-35.579,35.767-26.57,59.615l31.322,83.377c9.01,23.85,35.537,35.914,59.128,26.932l124.671-47.505
		C759.069,627.887,771.015,601.171,761.986,577.258z"/>
</g>
<g>
</g>
<g>
</g>
<g>
</g>
<g>
</g>
<g>
</g>
<g>
</g>
<g>
</g>
<g>
</g>
<g>
</g>
<g>
</g>
<g>
</g>
<g>
</g>
<g>
</g>
<g>
</g>
<g>
</g>
</svg>
